<svg width="90" height="90" viewBox="0 0 90 90" fill="none" xmlns="http://www.w3.org/2000/svg">
<path d="M62.45 13H5.55C3.0371 13 1 15.0371 1 17.55V54.45C1 56.9629 3.0371 59 5.55 59H62.45C64.9629 59 67 56.9629 67 54.45V17.55C67 15.0371 64.9629 13 62.45 13Z" fill="#C6C6C6"/>
<path d="M67 25H1V35H67V25Z" fill="black"/>
<path fill-rule="evenodd" clip-rule="evenodd" d="M43.02 43C43.02 41.3431 44.3632 40 46.02 40H52C53.6569 40 55 41.3431 55 43C55 44.6569 53.6569 46 52 46H46.02C44.3632 46 43.02 44.6569 43.02 43Z" fill="white"/>
<path fill-rule="evenodd" clip-rule="evenodd" d="M13 43C13 41.3431 14.3431 40 16 40H34C35.6569 40 37 41.3431 37 43C37 44.6569 35.6569 46 34 46H16C14.3431 46 13 44.6569 13 43Z" fill="white"/>
<path d="M71.44 43H14.54C12.0271 43 9.98999 45.0371 9.98999 47.55V84.45C9.98999 86.9629 12.0271 89 14.54 89H71.44C73.9529 89 75.99 86.9629 75.99 84.45V47.55C75.99 45.0371 73.9529 43 71.44 43Z" fill="black"/>
<path fill-rule="evenodd" clip-rule="evenodd" d="M52.05 77C52.05 75.3431 53.3932 74 55.05 74H61C62.6569 74 64 75.3431 64 77C64 78.6569 62.6569 80 61 80H55.05C53.3932 80 52.05 78.6569 52.05 77Z" fill="#C6C6C6"/>
<path fill-rule="evenodd" clip-rule="evenodd" d="M37.02 77C37.02 75.3431 38.3632 74 40.02 74H46C47.6569 74 49 75.3431 49 77C49 78.6569 47.6569 80 46 80H40.02C38.3632 80 37.02 78.6569 37.02 77Z" fill="#C6C6C6"/>
<path fill-rule="evenodd" clip-rule="evenodd" d="M22.04 77C22.04 75.3431 23.3832 74 25.04 74H31C32.6569 74 34 75.3431 34 77C34 78.6569 32.6569 80 31 80H25.04C23.3832 80 22.04 78.6569 22.04 77Z" fill="#C6C6C6"/>
<path d="M30.5 65H23.5C22.6716 65 22 65.6716 22 66.5V69.5C22 70.3284 22.6716 71 23.5 71H30.5C31.3284 71 32 70.3284 32 69.5V66.5C32 65.6716 31.3284 65 30.5 65Z" fill="#00D639"/>
<path d="M60 54.04C59.48 53.41 58.72 53.01 57.86 53.01C56.28 53.01 55 54.35 55 56.01C55 57.67 56.28 59.01 57.86 59.01C58.72 59.01 59.48 58.6 60 57.97C59.56 57.44 59.29 56.76 59.29 56.01C59.29 55.26 59.56 54.57 60 54.04Z" fill="white"/>
<path d="M62.14 53C61.28 53 60.52 53.41 60 54.03C60.44 54.56 60.71 55.24 60.71 56C60.71 56.76 60.44 57.44 60 57.96C60.52 58.59 61.28 59 62.14 59C63.72 59 65 57.66 65 56C65 54.34 63.72 53 62.14 53Z" fill="white"/>
<path d="M60 54.04C59.56 54.57 59.29 55.25 59.29 56.01C59.29 56.77 59.56 57.45 60 57.97C60.44 57.44 60.71 56.76 60.71 56.01C60.71 55.26 60.44 54.57 60 54.04Z" fill="#00D639"/>
<path fill-rule="evenodd" clip-rule="evenodd" d="M11.9651 4.00009C11.9651 2.3239 13.3239 0.965088 15.0001 0.965088H67.7801C74.4863 0.965088 79.9251 6.4039 79.9251 13.1101V31.7076C85.1632 33.0558 89.0351 37.8118 89.0351 43.4701V75.0101C89.0351 76.6863 87.6763 78.0451 86.0001 78.0451C84.3239 78.0451 82.9651 76.6863 82.9651 75.0101V43.4701C82.9651 40.1163 80.2439 37.3951 76.8901 37.3951C75.2139 37.3951 73.8551 36.0363 73.8551 34.3601V13.1101C73.8551 9.75627 71.1339 7.03509 67.7801 7.03509H15.0001C13.3239 7.03509 11.9651 5.67627 11.9651 4.00009Z" fill="#00D639"/>
</svg>
