<svg width="90" height="90" viewBox="0 0 90 90" fill="none" xmlns="http://www.w3.org/2000/svg">
<path d="M1.48438 84.0001V41.4601C1.48438 39.9301 2.26437 38.4901 3.55437 37.6651L36.5544 16.5451C38.0394 15.6001 39.9294 15.6001 41.3994 16.5451L74.3994 37.6651C75.6894 38.4901 76.4694 39.9151 76.4694 41.4601V84.0001C76.4694 86.4901 74.4594 88.5001 71.9694 88.5001H5.98437C3.49437 88.5001 1.48438 86.4901 1.48438 84.0001Z" fill="black"/>
<path d="M59.9838 4.5H17.9688C15.4787 4.5 13.4688 6.51 13.4688 9V52.905L38.9688 69L64.4688 52.89V42V9C64.4688 6.51 62.4588 4.5 59.9688 4.5H59.9838Z" fill="white"/>
<path d="M64.4844 40.5V10.5" stroke="white" stroke-width="4" stroke-linecap="round" stroke-linejoin="round"/>
<path d="M64.4837 10.5V9C64.4837 6.51 62.4737 4.5 59.9837 4.5H17.9687C15.4787 4.5 13.4688 6.51 13.4688 9V52.905L38.9687 69L64.4687 52.89V40.5" stroke="#C6C6C6" stroke-width="4" stroke-linecap="round" stroke-linejoin="round"/>
<path d="M10.4844 51L38.9694 69L67.4844 51" stroke="white" stroke-width="4" stroke-linecap="round" stroke-linejoin="round"/>
<path d="M25.4688 43.5H38.9838" stroke="#00D639" stroke-width="4" stroke-linecap="round" stroke-linejoin="round"/>
<path d="M87.9553 12.1106L84.4643 7.23081C83.5002 5.88328 81.6264 5.57239 80.2788 6.53641C78.9313 7.50043 78.6204 9.37431 79.5844 10.7218L83.0755 15.6017C84.0395 16.9492 85.9134 17.2601 87.2609 16.2961C88.6084 15.332 88.9193 13.4582 87.9553 12.1106Z" fill="black"/>
<path d="M49.2902 43.0651C49.8452 42.9301 50.3702 42.6901 50.8352 42.3601L79.9352 21.5401C81.2852 20.5801 81.6002 18.7051 80.6252 17.3551L77.1301 12.4801C76.1702 11.1301 74.2952 10.8151 72.9452 11.7901L43.8452 32.6101C43.3802 32.9401 42.9752 33.3601 42.6752 33.8401L40.0352 37.9651L44.5202 44.2351L49.2752 43.0651H49.2902Z" fill="#C6C6C6"/>
<path d="M40.0491 37.95L38.5041 40.38C37.0491 42.66 39.1191 45.555 41.7441 44.91L44.5341 44.22L40.0491 37.95Z" fill="black"/>
</svg>
