<svg width="90" height="90" viewBox="0 0 90 90" fill="none" xmlns="http://www.w3.org/2000/svg">
<path d="M29 89V35.6C29 34.16 29.68 32.82 30.84 31.97L32.34 30.87C33.92 29.71 36.07 29.71 37.65 30.87L40.99 33.32L44.33 30.87C45.91 29.71 48.06 29.71 49.64 30.87L52.98 33.32L56.32 30.87C57.9 29.71 60.05 29.71 61.63 30.87L64.97 33.32L68.31 30.87C69.89 29.71 72.04 29.71 73.62 30.87L76.96 33.32L80.3 30.87C81.88 29.71 84.03 29.71 85.61 30.87L87.11 31.97C88.27 32.82 88.95 34.17 88.95 35.6V75.5C88.95 82.96 82.91 89 75.45 89H29Z" fill="#C6C6C6"/>
<path d="M0.950137 75.5V6.61001C0.950137 5.17001 1.63014 3.83001 2.79014 2.98001L4.29014 1.88001C5.87014 0.72001 8.02014 0.72001 9.60014 1.88001L12.9401 4.33001L16.2801 1.88001C17.8601 0.72001 20.0101 0.72001 21.5901 1.88001L24.9301 4.33001L28.2701 1.88001C29.8501 0.72001 32.0001 0.72001 33.5801 1.88001L36.9201 4.33001L40.2601 1.88001C41.8401 0.72001 43.9901 0.72001 45.5701 1.88001L48.9101 4.33001L52.2501 1.88001C53.8301 0.72001 55.9801 0.72001 57.5601 1.88001L59.0601 2.98001C60.2201 3.83001 60.9001 5.18001 60.9001 6.61001V75.5C60.9001 82.96 66.9401 89 74.4001 89H14.3901C6.93014 89 0.890137 82.96 0.890137 75.5H0.950137Z" fill="black"/>
<path d="M30.9702 39C26.0002 39 21.9702 34.97 21.9702 30C21.9702 25.03 26.0002 21 30.9702 21C35.9402 21 39.9702 25.03 39.9702 30C39.9702 34.97 35.9402 39 30.9702 39Z" fill="#00D639"/>
<path fill-rule="evenodd" clip-rule="evenodd" d="M12.9502 48C12.9502 46.3431 14.2933 45 15.9502 45H45.9502C47.607 45 48.9502 46.3431 48.9502 48C48.9502 49.6569 47.607 51 45.9502 51H15.9502C14.2933 51 12.9502 49.6569 12.9502 48Z" fill="white"/>
<path fill-rule="evenodd" clip-rule="evenodd" d="M12.9502 60C12.9502 58.3431 14.2933 57 15.9502 57H45.9502C47.607 57 48.9502 58.3431 48.9502 60C48.9502 61.6569 47.607 63 45.9502 63H15.9502C14.2933 63 12.9502 61.6569 12.9502 60Z" fill="#C6C6C6"/>
<path fill-rule="evenodd" clip-rule="evenodd" d="M12.9502 72C12.9502 70.3431 14.2933 69 15.9502 69H30.9502C32.607 69 33.9502 70.3431 33.9502 72C33.9502 73.6569 32.607 75 30.9502 75H15.9502C14.2933 75 12.9502 73.6569 12.9502 72Z" fill="#C6C6C6"/>
</svg>
